<?xml version="1.0" standalone="no"?><!DOCTYPE svg PUBLIC "-//W3C//DTD SVG 1.1//EN" "http://www.w3.org/Graphics/SVG/1.1/DTD/svg11.dtd"><svg t="1766046597706" class="icon" viewBox="0 0 1024 1024" version="1.1" xmlns="http://www.w3.org/2000/svg" p-id="10405" xmlns:xlink="http://www.w3.org/1999/xlink" width="200" height="200"><path d="M622.2336 470.3744a204.7488 204.7488 0 0 0 83.2-230.5024 207.0528 207.0528 0 0 0-198.2976-145.92 207.0528 207.0528 0 0 0-198.2976 145.92 204.6464 204.6464 0 0 0 83.1488 230.5536c-141.6704 37.7856-241.9712 162.816-247.2448 308.224 0 91.392 181.8624 137.0624 363.264 137.0624 181.4016 0 362.3936-45.7216 362.3936-137.0624-4.7616-146.176-105.6256-272.0256-248.1664-309.6064v1.3312z m-69.5296 268.1344l-46.08 45.6704-46.0288-45.6704 46.08-149.3504 46.08 149.3504zM352.4608 299.1616A154.2656 154.2656 0 0 1 476.9792 147.968a155.3408 155.3408 0 0 1 173.824 91.4432 153.2416 153.2416 0 0 1-56.3712 186.9824 156.1088 156.1088 0 0 1-195.9424-18.176 153.2928 153.2928 0 0 1-46.0288-109.1072z m155.648 565.4016c-189.7472 0-310.784-51.2-310.784-84.0704 7.0144-150.4256 129.1264-270.336 280.832-275.8656l-69.12 233.8816a25.4464 25.4464 0 0 0 6.9632 25.6l74.1376 73.472a26.0096 26.0096 0 0 0 36.864 0l73.6256-75.776a25.3952 25.3952 0 0 0 6.912-25.6l-69.9904-231.5776c151.1424 5.2736 273.2544 124.2112 281.2928 274.0224 0 32.9216-121.088 84.0704-310.784 84.0704v1.792z" fill="#909399" p-id="10406"></path><path d="M301.5168 237.568a214.7328 214.7328 0 0 1 205.6192-151.2448c94.6176 0 178.176 61.44 205.6704 151.296a212.2752 212.2752 0 0 1-71.9872 228.8128c136.96 43.52 232.6016 168.0896 237.2608 311.9616v0.256c0 25.7024-12.8 47.616-33.792 65.7408-20.7872 18.0736-50.176 32.768-84.5824 44.3392-68.9664 23.1936-160.4608 34.6624-251.6992 34.6624-91.1872 0-182.8864-11.4688-252.1088-34.6624-34.56-11.6224-64-26.2656-84.8896-44.288-21.0432-18.1248-33.9456-40.0896-33.9456-65.792v-0.256A339.712 339.712 0 0 1 374.784 467.456a212.1728 212.1728 0 0 1-73.216-229.888z m320.768 223.488a197.0176 197.0176 0 0 0 75.776-218.9312 199.3728 199.3728 0 0 0-190.9248-140.4416 199.3728 199.3728 0 0 0-190.976 140.4416A196.9664 196.9664 0 0 0 396.288 463.9744l14.2336 9.4208-16.4864 4.4032c-138.3936 36.9664-236.3392 159.0272-241.5616 301.056 0.0512 19.8656 9.8816 37.888 28.5696 53.9648 18.8416 16.2304 46.2336 30.1056 79.8208 41.3184 67.072 22.528 157.0304 33.8944 247.1936 33.8944 90.2144 0 179.9168-11.4176 246.784-33.8944 33.4848-11.264 60.7232-25.088 79.4624-41.3696 18.6368-16.0768 28.416-34.048 28.4672-54.016-4.608-141.056-100.9664-262.7584-237.6704-301.056l-10.496 6.9632v-25.6l7.68 2.048z m21.4528-218.624a147.6608 147.6608 0 0 0-165.2736-86.9376 146.5856 146.5856 0 0 0-118.272 140.8512v2.7648a145.6128 145.6128 0 0 0 43.6736 103.68 148.4288 148.4288 0 0 0 186.2656 17.2544 145.6128 145.6128 0 0 0 53.6064-177.664zM344.9856 306.7904h-0.2048v-7.68a161.9456 161.9456 0 0 1 130.7136-158.6688 163.0208 163.0208 0 0 1 182.3744 96 160.9216 160.9216 0 0 1-59.1872 196.4032 163.84 163.84 0 0 1-205.5168-19.0976 161.024 161.024 0 0 1-48.128-106.9568z m143.5648 189.7472l-72.0896 244.0704a17.8176 17.8176 0 0 0 4.8128 17.8688l0.1536 0.1024 74.1376 73.5744a18.176 18.176 0 0 0 25.9072 0l73.8304-75.9808a17.7664 17.7664 0 0 0 4.864-17.8176L527.0528 496.64l10.752 0.3584c155.136 5.376 280.4736 127.4368 288.7168 281.2928v0.4096a28.8768 28.8768 0 0 1-7.2704 17.92 79.1552 79.1552 0 0 1-18.0736 15.5136c-15.104 9.9328-36.864 19.6608-64.3072 28.2624-53.3504 16.6912-129.1264 29.3376-221.1328 30.0032v1.8432h-7.68c-95.488 0-173.9776-12.8512-228.8128-30.0544-27.392-8.5504-49.152-18.2784-64.3072-28.2624a79.3088 79.3088 0 0 1-18.0224-15.5136 28.8768 28.8768 0 0 1-7.3216-17.92v-0.3584c7.2704-154.4192 132.608-277.504 288.256-283.136l10.752-0.4096z m11.8272 360.2944V855.04h7.68c94.208 0 171.1104-12.6976 224.256-29.3376 26.624-8.3456 46.8992-17.5616 60.416-26.4704 6.7584-4.4544 11.5712-8.6528 14.592-12.3392 2.9184-3.6864 3.7888-6.3488 3.84-8.0896-7.7312-142.1312-120.9344-255.6928-263.1168-265.9328l66.8672 221.184a33.0752 33.0752 0 0 1-8.9088 33.1776L532.48 842.9056l-0.0512 0.0512a33.6896 33.6896 0 0 1-47.7184 0L410.624 769.536a33.1264 33.1264 0 0 1-8.96-33.2288l66.048-223.4368c-142.7456 10.496-256 125.0304-262.8096 267.7248 0.0512 1.7408 0.9216 4.4032 3.8912 8.0896 3.0208 3.7376 7.7824 7.936 14.5408 12.3904 13.5168 8.8576 33.8432 18.0736 60.416 26.4192 51.712 16.1792 125.9008 28.672 216.576 29.3376z m6.2976-293.7856l-54.784 177.6128 54.784 54.272 54.784-54.272-54.784-177.6128z m0 52.1216l37.376 121.1392-37.376 37.0176-37.376-37.0176 37.376-121.1392z" fill="#909399" p-id="10407"></path></svg>