<?xml version="1.0" standalone="no"?><!DOCTYPE svg PUBLIC "-//W3C//DTD SVG 1.1//EN" "http://www.w3.org/Graphics/SVG/1.1/DTD/svg11.dtd"><svg t="1766046746372" class="icon" viewBox="0 0 1024 1024" version="1.1" xmlns="http://www.w3.org/2000/svg" p-id="12608" xmlns:xlink="http://www.w3.org/1999/xlink" width="200" height="200"><path d="M589.284075 895.80705c-15.924894-2.334398-22.719143-17.497489-22.719143-27.414932l108.847938-410.429187c2.332399-13.706466 20.487718-19.343013 31.852788-19.343013 15.924894 1.845524 22.817117 17.399514 22.817118 26.928058l-108.850937 410.814087c-2.332399 7.68102-13.69047 19.443987-25.051542 19.443987h-6.896222z m295.089922-737.449876c0 18.571212-12.819695 33.734303-28.450665 33.734302H550.640038c-15.538994 0-28.065764-15.163091-28.065764-33.734302 0-18.663188 12.525771-33.829278 28.065764-33.829279h305.284294c15.63097 0 28.449665 15.16609 28.449665 33.829279z m0 162.540095c0 18.568213-12.819695 33.731304-28.450665 33.731303H703.086735c-15.533995 0-28.450665-15.163091-28.450665-33.731303 0-18.663188 12.91667-33.829278 28.450665-33.829279h152.837597c15.63097 0.001 28.449665 15.16609 28.449665 33.829279z m0 0" fill="#515151" p-id="12609"></path><path d="M711.825482 950.440964c-19.708919 0.7768-35.244913 17.10559-34.857013 36.454602 0 20.511712 15.536994 36.840502 34.857013 36.840502h138.857201c95.548366 0 173.325315-87.297494 173.325315-195.200675V194.811775c0-107.515281-77.776948-194.811775-173.325315-194.811775H225.934751c-95.936266 0-173.717214 87.297494-173.717213 194.811775v61.149235c0 20.122812 15.538994 36.454602 34.957987 36.454602 18.932119 0 34.472113-16.331789 34.472113-36.454602v-61.149235c0-66.877758 46.609983-121.903572 104.287113-121.903572h624.746933c57.286231 0 103.896214 55.025814 103.896214 121.903572v633.723618c0 67.271657-46.609983 121.906571-103.896214 121.906571H711.825482zM191.074739 616.712004C80.283302 674.746042 0.27093 803.454859 0.27093 913.986363c0 20.119813 15.533995 36.454602 34.857014 36.454601 19.033093 0 34.567088-16.334789 34.567088-36.454601 0-101.005959 108.852936-255.958011 242.755414-255.958011 134.290378 0 243.140315 154.952051 243.140316 255.958011 0 20.119813 15.536994 36.454602 34.472112 36.454601 19.321019 0 34.954988-16.334789 34.954989-36.454601 0-110.531504-80.109347-239.240321-190.802809-297.274359 54.956831-42.580022 87.197519-108.68398 86.80662-178.092086 0-120.834847-93.701842-219.11451-208.183328-219.114509-114.969359 0-208.283302 98.279662-208.283302 219.114509-0.7758 69.409105 31.461889 135.512063 86.519695 178.092086z m121.375707-31.983754c-76.224348 0-138.465302-65.228183-138.465302-146.108332 0-80.589223 62.240954-146.206306 138.465302-146.206306 76.613248 0 139.147126 65.617083 139.147127 146.206306-0.292924 80.881148-62.533878 146.108331-139.147127 146.108332z m0 0" fill="#515151" p-id="12610"></path></svg>