<?xml version="1.0" standalone="no"?><!DOCTYPE svg PUBLIC "-//W3C//DTD SVG 1.1//EN" "http://www.w3.org/Graphics/SVG/1.1/DTD/svg11.dtd"><svg t="1766046621589" class="icon" viewBox="0 0 1024 1024" version="1.1" xmlns="http://www.w3.org/2000/svg" p-id="11601" xmlns:xlink="http://www.w3.org/1999/xlink" width="200" height="200"><path d="M843.029333 125.482667a28.074667 28.074667 0 0 0-25.685333-3.093334L407.552 278.613333c-17.834667 6.784-40.128 10.090667-63.04 10.090667-31.936 0.042667-65.024-6.485333-88-15.36-6.976-2.56-13.653333-5.802667-19.989333-9.685333 1.813333-0.768 3.84-1.6 6.208-2.389334l372.650666-142.08 55.530667 20.949334V78.933333a27.754667 27.754667 0 0 0-37.653333-25.941333l-409.749334 156.16c-12.672 4.586667-23.466667 10.026667-32.661333 18.090667-9.109333 7.829333-16.896 20.650667-16.768 34.901333 0 0.426667 0.128 1.024 0.128 1.024v550.144c0 0.256-0.085333 0.490667-0.085333 0.64 0 0.213333 0.085333 0.32 0.085333 0.554667v0.533333h0.064c0.896 19.2 11.861333 31.466667 22.421333 40.170667 33.088 25.706667 88.682667 40.085333 147.776 40.789333 28.032 0 56.448-3.712 82.773334-13.653333l409.92-156.288a27.626667 27.626667 0 0 0 17.877333-25.941334V148.416a27.84 27.84 0 0 0-11.968-22.869333l-0.042667-0.064zM199.722667 353.088c1.216 2.773333 1.962667 5.717333 2.24 8.746667l0.085333 1.706666c0.512 8.426667 4.16 12.970667 11.626667 19.52 25.088 20.053333 76.309333 34.56 130.794666 35.008 20.928 0.192 41.792-2.666667 61.909334-8.448v57.301334a286.506667 286.506667 0 0 1-62.229334 6.613333c-53.610667-0.810667-104.618667-11.306667-144.469333-33.706667l0.042667-86.741333z m144.469333 411.413333c-53.653333-0.896-104.661333-11.328-144.469333-33.770666v-86.848c1.258667 2.773333 2.026667 5.76 2.24 8.832l0.085333 1.706666c0.576 8.512 4.16 13.013333 11.669333 19.584 25.045333 20.010667 76.245333 34.56 130.773334 34.88 21.44 0 42.496-2.56 61.866666-8.32v57.237334c-20.437333 4.48-41.301333 6.741333-62.229333 6.656l0.064 0.042666z" p-id="11602"></path></svg>